PathFileType	4	(X/Y/Z)	Kaydara	
DataRate	CameraRate	NumFrames	NumMarkers	Units	OrigDataRate	OrigDataStartFrame	OrigNumFrames	
120.00	120.00	4	72	mm	120.00	229	261	
Frame#	Time	Hips			RightUpLeg			RightLeg			RightFoot			RightFoot_End			LeftUpLeg			LeftLeg			LeftFoot			LeftFoot_End			Spine			Spine1			Spine2			Spine3			Neck			Head			Head_End			RightShoulder			RightArm			RightForeArm			RightHand			RightHandThumb1			RightHandThumb2			RightHandThumb3			RightHandThumb3_End			RightInHandIndex			RightHandIndex1			RightHandIndex2			RightHandIndex3			RightHandIndex3_End			RightInHandMiddle			RightHandMiddle1			RightHandMiddle2			RightHandMiddle3			RightHandMiddle3_End			RightInHandRing			RightHandRing1			RightHandRing2			RightHandRing3			RightHandRing3_End			RightInHandPinky			RightHandPinky1			RightHandPinky2			RightHandPinky3			RightHandPinky3_End			LeftShoulder			LeftArm			LeftForeArm			LeftHand			LeftHandThumb1			LeftHandThumb2			LeftHandThumb3			LeftHandThumb3_End			LeftInHandIndex			LeftHandIndex1			LeftHandIndex2			LeftHandIndex3			LeftHandIndex3_End			LeftInHandMiddle			LeftHandMiddle1			LeftHandMiddle2			LeftHandMiddle3			LeftHandMiddle3_End			LeftInHandRing			LeftHandRing1			LeftHandRing2			LeftHandRing3			LeftHandRing3_End			LeftInHandPinky			LeftHandPinky1			LeftHandPinky2			LeftHandPinky3			LeftHandPinky3_End			
		X1	Y1	Z1	X2	Y2	Z2	X3	Y3	Z3	X4	Y4	Z4	X5	Y5	Z5	X6	Y6	Z6	X7	Y7	Z7	X8	Y8	Z8	X9	Y9	Z9	X10	Y10	Z10	X11	Y11	Z11	X12	Y12	Z12	X13	Y13	Z13	X14	Y14	Z14	X15	Y15	Z15	X16	Y16	Z16	X17	Y17	Z17	X18	Y18	Z18	X19	Y19	Z19	X20	Y20	Z20	X21	Y21	Z21	X22	Y22	Z22	X23	Y23	Z23	X24	Y24	Z24	X25	Y25	Z25	X26	Y26	Z26	X27	Y27	Z27	X28	Y28	Z28	X29	Y29	Z29	X30	Y30	Z30	X31	Y31	Z31	X32	Y32	Z32	X33	Y33	Z33	X34	Y34	Z34	X35	Y35	Z35	X36	Y36	Z36	X37	Y37	Z37	X38	Y38	Z38	X39	Y39	Z39	X40	Y40	Z40	X41	Y41	Z41	X42	Y42	Z42	X43	Y43	Z43	X44	Y44	Z44	X45	Y45	Z45	X46	Y46	Z46	X47	Y47	Z47	X48	Y48	Z48	X49	Y49	Z49	X50	Y50	Z50	X51	Y51	Z51	X52	Y52	Z52	X53	Y53	Z53	X54	Y54	Z54	X55	Y55	Z55	X56	Y56	Z56	X57	Y57	Z57	X58	Y58	Z58	X59	Y59	Z59	X60	Y60	Z60	X61	Y61	Z61	X62	Y62	Z62	X63	Y63	Z63	X64	Y64	Z64	X65	Y65	Z65	X66	Y66	Z66	X67	Y67	Z67	X68	Y68	Z68	X69	Y69	Z69	X70	Y70	Z70	X71	Y71	Z71	X72	Y72	Z72	

229	1.9	5081.203	893.81699	129.612	5063.564912312489	848.4531381570303	81.4883077650315	5016.591708267516	435.3762435636312	45.294719841252274	5108.608280123024	129.51045817498547	-144.7422909404217	5069.45165328597	8.987849530042041	-6.591100758881149	5107.316468970184	912.3146211653565	193.0452422548652	4979.872611492965	525.1551252730718	286.899883032549	4870.832886048688	103.4805143183191	346.29404113733466	4733.450500369293	25.67654507802785	240.94814388531566	5051.073366841534	1016.5034124907904	62.666477057974475	5002.30403436207	1085.4561835683423	14.766418708124462	4945.673786621774	1152.939473509737	-34.89112621970918	4883.010607301625	1210.43022160994	-81.70338113425709	4815.170945001909	1272.1224893878484	-130.34135705014978	4750.001475094759	1327.3889794545446	-169.21589783220344	4608.526696059829	1400.4581888736436	-170.29847011159674	4826.919104455474	1236.797371334295	-119.25981723516068	4776.219519100518	1190.0090778078538	-101.28012408008915	4880.215181171048	1167.8867215523528	66.45449619886703	4824.057012831687	1144.4234812965565	191.9466097488143	4819.97220221437	1174.599955773471	216.7966782659236	4834.625224080493	1186.3566925885966	238.5650834764044	4845.7892472229005	1189.9686050314317	253.08588078236806	4855.917168282869	1189.065500989092	264.6448277933853	4821.386723359425	1161.7629001311398	217.3275085042261	4828.015427302177	1167.8433994077945	251.40688618732514	4841.446241790067	1167.8221213156323	272.23550971444035	4853.340245193238	1168.7298848716666	281.47569089982466	4865.575489810889	1170.1024741488527	286.62197426238345	4824.1852413073975	1148.904562571317	214.26688907006712	4832.161884385428	1147.881431943257	245.85221743212765	4847.176344794311	1146.1365496589735	268.0623988135244	4861.698195529857	1146.405557496485	278.9617544243722	4875.169472575278	1147.5057867427754	284.47187307105315	4825.911296322598	1139.6794622123005	211.26683003337138	4834.318553224959	1130.7968515148564	237.0627228721599	4847.760250720267	1127.517741694822	255.84163033474582	4861.95627803634	1126.843484202771	266.0471322649188	4874.712028753929	1127.4355015979888	271.082168359955	4828.354156353587	1128.756795043224	206.57030407347315	4837.298431701467	1113.9264896641735	227.4528749385262	4848.579884251542	1108.5962373715915	241.47340435250152	4859.185021127746	1106.7961955008818	248.4254216353364	4870.628705504007	1106.5677183179614	252.602538284123	4848.463392539816	1266.5241723517552	-108.0169580467415	4896.826166477664	1321.2492448876094	-97.16865842186317	4914.2987575731895	1208.4506227280942	45.92341712673884	4853.838599275399	1135.150754427838	147.1242527667372	4835.094951184018	1163.3188540908104	161.6427285515869	4811.5860401366235	1166.8635747998537	168.53022120862863	4796.648410539419	1165.019129708306	173.50353198303577	4785.422292691775	1159.7918453679763	177.8008627352273	4839.176788785629	1151.9320349814134	164.71984704525457	4819.22441074781	1155.129149842012	187.45476767838565	4801.808187262134	1149.3967133358847	197.34117455275464	4789.422303501688	1144.7303056088049	198.32167422754776	4778.119431538698	1140.1242129618806	195.64869084965414	4843.603596670007	1139.7119012211685	164.1274761787061	4826.53811486299	1136.2226645936366	185.9837154525215	4808.177967368801	1128.3347095621352	196.61243298021643	4793.544082070929	1121.921358508042	197.71890223040862	4781.327027177266	1116.5005657958804	194.75699439470077	4847.281548863951	1131.0500320764886	163.1947525877924	4835.300917906174	1120.559616875286	182.16556271419944	4819.983240624871	1112.0205402793197	191.23157737684457	4806.231518870784	1104.9507242658942	192.19368603409197	4794.916814540564	1099.4350772717644	189.35890397641325	4851.773593886668	1120.554723982842	160.94160605696152	4843.68636626576	1104.6423418589534	177.18107953952415	4832.541306808736	1095.2540403667713	184.04866632188484	4823.052897047146	1088.8635094969795	184.56074025776323	4813.341923444611	1083.2674935393766	181.94041416340468
230	1.908	5081.203	893.81699	129.612	5063.047810901182	848.5114767483237	81.76160916548422	5016.7946895970035	435.5727605517536	44.17751001380711	5108.899437139482	129.85671404397192	-145.99123019239732	5069.701478058933	8.791918256988144	-8.46023580163842	5107.88823726116	912.2800040494528	192.77183029066484	4979.93090587216	525.3513551141135	286.8580337070664	4871.238425974735	103.26981889143688	345.44551826229133	4733.884079265481	25.113168031707353	240.33014295887935	5050.837787720582	1016.3768124237428	62.59659010834828	5001.952117000082	1085.3152387874484	14.81534779752332	4945.211357565059	1152.79859662576	-34.691755198549124	4882.458627514615	1210.3076344918816	-81.32492461291048	4814.532482120662	1272.0228511243238	-129.7797191752676	4749.3986915912365	1327.4038010681866	-168.53993855528353	4607.934951705576	1400.4486224046886	-169.46636263044064	4826.253882178278	1236.780152541436	-118.55441341033686	4775.62642291552	1191.025333825421	-99.70204678276778	4882.352301106163	1170.9718715210802	66.42831956710495	4827.4839476117695	1150.6020341175788	190.97406247094932	4824.6142342226385	1181.6457142419208	215.48987952243868	4839.958285439995	1193.4188027049936	236.73902429820367	4851.4599835328	1196.9741236327109	250.90226662514993	4861.746599350092	1195.965687509924	262.16660710019505	4825.649982016065	1168.7231889681543	216.01890564916735	4832.91885600939	1175.4056099213828	249.53773173736468	4846.665043401236	1175.3830897769553	269.89979552875224	4858.750955770833	1176.0681441523238	278.84813262802	4871.14223809965	1177.1066936235322	283.75165348989975	4828.029578460744	1155.6390407668312	212.98519915139863	4836.404066645112	1155.0809849975324	244.0383612273816	4851.705146936887	1153.302475012617	265.744706716383	4866.430929026078	1153.2873052460318	276.29449417189164	4880.059522451323	1154.0145053402332	281.5402169056468	4829.44383974615	1146.2429862309355	210.01914985711784	4837.9384782927855	1137.6403062090346	235.36966147378695	4851.570576180893	1134.298124242652	253.71564520287458	4865.931756709968	1133.331824651942	263.5872646361597	4878.820471420288	1133.5646038455156	268.37526771865794	4831.504774727619	1135.0747990295542	205.3726146194653	4840.295659456276	1120.3633014581424	225.87964283486204	4851.636493087477	1114.9286202736603	239.56514618059794	4862.317065206709	1112.8894776604714	246.2792604013944	4873.8526198884565	1112.3277619482615	250.2407876011507	4847.922049270702	1266.3300902731303	-107.72347120829826	4896.40217929322	1320.5454107320375	-98.45713450696104	4916.432641565274	1209.7758251269747	45.928914665999145	4855.132071674732	1139.8977438839972	148.32702272522246	4837.239812423366	1169.1074931191615	162.58682847160776	4813.835227320571	1173.4365807369136	169.7800169775974	4798.854376394944	1172.0875809856689	175.01208181700576	4787.493099299698	1167.2298804895677	179.56436320266522	4841.034904948387	1157.6613484575182	165.75853143385916	4821.2968690735	1162.0537145003696	188.61250899385732	4803.759957995954	1157.0079537996094	198.82804483688994	4791.228679880541	1152.6374296038216	200.101744234597	4779.758003196262	1148.1878608088525	197.73119248913156	4845.126267312531	1145.2545815805938	165.29847510825397	4828.088482695101	1142.830248708242	187.3423375111537	4809.551347520663	1135.6629095932365	198.3475803053652	4794.720314044686	1129.5927660435464	199.81612487970526	4782.30908402389	1124.3365470406816	197.18918647229293	4848.563782687536	1136.4317346390574	164.4540164538169	4836.405182840891	1126.7599803255212	183.66322494922989	4820.886881566701	1118.817983827108	193.0749128443163	4806.920374471183	1112.0627495367999	194.39556154592168	4795.411429448692	1106.6940386304077	191.88013762769404	4852.756547775062	1125.7053982344105	162.3163015605503	4844.328447878311	1110.4064727846485	178.83832893992445	4832.951169288885	1101.444329270835	186.00898487530645	4823.271475024822	1095.2581198746025	186.7952857185175	4813.368511798961	1089.7777996694908	184.46517148761671
231	1.917	5081.203	893.81699	129.612	5062.546966182649	848.5558497454911	81.99660541836285	5016.994124437229	435.7594011274925	43.04889322905608	5109.239739036742	130.16436505415663	-147.2334557003501	5069.992718921424	8.602255957630685	-10.283976125341535	5108.450387685716	912.2573165952406	192.52895321554016	4980.044786344314	525.5424368782082	286.8589908410754	4871.692726268519	103.04912075052198	344.61690404390237	4734.369929535902	24.53412613005032	239.7305611899539	5050.57450397874	1016.2639985477733	62.56355892217525	5001.56246136123	1085.1891278614164	14.914213871503843	4944.702304034452	1152.671797928839	-34.431262174523525	4881.853126735238	1210.1951356207774	-80.87800711431825	4813.833781639278	1271.9294124196504	-129.14185597499986	4748.729082614536	1327.4174438856905	-167.78398812977173	4607.291036632483	1400.465795114032	-168.53558555521505	4825.539105965192	1236.7517206129612	-117.79773702773902	4775.006219582977	1191.8964109092474	-98.18167023118721	4884.208527328003	1173.70806299026	66.37816867304568	4830.511790258093	1156.2204830977648	190.1253036648265	4828.8129016059775	1188.017591147674	214.26544157529213	4844.770077816111	1199.7655273088571	235.01838924038074	4856.5582482586415	1203.2481734845815	248.85046328780373	4866.963482636907	1202.1319646334148	259.85102779573776	4829.480481908232	1175.0402309453673	214.8222171672136	4837.333211204122	1182.2662071357597	247.8164922594471	4851.335634839159	1182.2279104384818	267.756595613984	4863.567627223651	1182.6896223579017	276.4403406039855	4876.070900910219	1183.399275827311	281.12333472587216	4831.45046433561	1161.7684119937674	211.84318307275808	4840.1729100335515	1161.6391246380183	242.41430232279197	4855.697466192797	1159.816381312729	263.6690490702423	4870.572553703541	1159.5187913626373	273.9038602140447	4884.31059210261	1159.8798163303643	278.91034990913516	4832.561155965983	1152.2296458905003	208.92971310778665	4841.106224154	1143.8983116617758	233.89552160970266	4854.875178639008	1140.4892435012457	251.8576834481073	4869.3496140615225	1139.2354805733253	261.4306837552846	4882.3266572159955	1139.116832533205	265.9962121171148	4834.249611749512	1140.8516983643185	204.35450341781876	4842.85972777893	1126.2725150475771	224.55439160465613	4854.219555070366	1120.738860867499	237.94949642654495	4864.93891132474	1118.4680738498184	244.45399678082555	4876.527489263954	1117.5824080399377	248.2231670641625	4847.313064227358	1266.161560592648	-107.3332867978041	4895.876094927446	1319.9079913874566	-99.48780713550263	4918.377603471424	1210.9157652920428	46.054023990517145	4856.351714587931	1144.254609836479	149.52300764066763	4839.300715466092	1174.3987928596378	163.46443044059055	4816.049531874679	1179.4684575014012	170.90599947416382	4801.06442896733	1178.5938306058752	176.36322323212252	4789.604580047654	1174.0962077015924	181.14785437908148	4842.820782980309	1162.9121875592675	166.7488250892397	4823.336931991731	1168.4217157095586	189.67767108746912	4805.731271258236	1164.0354042157055	200.1866013722598	4793.093182165479	1159.9571043850085	201.72683006799872	4781.490881479221	1155.669980150396	199.63363029832476	4846.589500339539	1150.348422877975	166.43957175711836	4829.625191195978	1148.9288500292678	188.63795901643925	4810.969332980295	1142.4566146545692	199.98331019513284	4795.988463782963	1136.727278233089	201.78298965405338	4783.423017805823	1131.643090510461	199.46418007327236	4849.794399160037	1141.3872989064353	165.69765087704275	4837.505041050633	1132.4993398078752	185.12822811250635	4821.83845475946	1125.1365744681248	194.8565329820939	4807.703624896182	1118.6959366364379	196.50730297958125	4796.038402277708	1113.482277996173	194.28667590782794	4853.697370674308	1130.4601665305795	163.6924432505256	4844.976867813521	1115.7605627219175	180.4921967362215	4833.411503256113	1107.2172832684598	187.94691689950116	4823.575489376076	1101.238791671954	188.9887776877175	4813.514784273696	1095.883305274255	186.9283046077853
232	1.925	5081.203	893.81699	129.612	5062.059304662859	848.5836377315651	82.19248256120076	5017.191404339396	435.93179117071736	41.91456384778131	5109.630494770396	130.43337712610145	-148.47457375793093	5070.333047741354	8.418877193105784	-12.064040598881652	5109.005612076781	912.2489296458826	192.31729437511348	4980.219790513739	525.729265529412	286.9014274592576	4872.19925475913	102.82064594563384	343.8076482132017	4734.9129972357	23.941806557065334	239.1467095741302	5050.285636188418	1016.1660977725287	62.56772974680774	5001.137733887944	1085.0795292363846	15.063607554705278	4944.149649031081	1152.5613183053238	-34.10867377286732	4881.197082873324	1210.095536767385	-80.36097153540439	4813.0777531451995	1271.8454848662584	-128.4254234175614	4747.994874802758	1327.4332428861255	-166.94458799462953	4606.597360177956	1400.5136878538021	-167.50134046285774	4824.775693430334	1236.7130494477383	-116.98801022767702	4774.349367426524	1192.610720539843	-96.71663407394946	4885.761370494464	1176.085375561999	66.32929568465231	4833.096495745302	1161.2564629851079	189.45529373685434	4832.515863454093	1193.686605638106	213.18306160717756	4849.00398121998	1205.3667195059538	233.47036466467353	4861.02521636208	1208.76050120519	247.00304744265577	4871.507817761091	1207.5345937770614	257.77530979842766	4832.82761380008	1180.6865413200967	213.79806880480675	4841.201960243694	1188.394344716713	246.3136756106166	4855.398883766452	1188.3256736744029	265.88400420074396	4867.730175044626	1188.5643059594909	274.3346056501815	4880.301053558141	1188.9515799188466	278.8224316519411	4834.399675841828	1167.2673356613566	210.9016318967752	4843.415704179403	1167.5283906024765	241.05055971471333	4859.098091366067	1165.6510358967541	261.9142137609369	4874.066870829765	1165.0740066540243	271.8736989773196	4887.866188955656	1165.0772816984506	276.6695332973721	4835.216847286379	1157.615682060569	208.05917137660623	4843.772922333484	1149.5465258330116	232.7095399902018	4857.623360477713	1146.0672625794366	250.34416412840747	4872.158386100455	1144.531958126711	259.6586748496072	4885.178934094517	1144.0712483235313	264.0294912901968	4836.544636356366	1146.0658050164309	203.5762072638546	4844.945757700395	1131.633119184447	223.54496599855744	4856.2832843367105	1126.006833695321	236.6999750253819	4867.004484456616	1123.5130710472788	243.02666326504684	4878.607227311262	1122.31425459747	246.62952662953904	4846.641342745467	1266.0239833787289	-106.84383173161757	4895.26044458785	1319.3550707265001	-100.25121316673489	4920.122356414747	1211.874348748091	46.31710900457448	4857.476606736465	1148.2097187413558	150.7383209053907	4841.249538222746	1179.1748557948918	164.30526255466904	4818.197226688257	1184.9376647812826	171.93597222317607	4803.245082501337	1184.514241319157	177.58317408563937	4791.722426303958	1180.3658179548931	182.57602228865863	4844.5081053596705	1167.667431849114	167.72045381955044	4825.313820435369	1174.21025424457	190.68222658942096	4807.6894723251	1170.453346523328	201.4474652075906	4794.982397931695	1166.6626096216578	203.22513791928944	4783.284302289472	1162.54352710858	201.38114958836218	4847.969236972164	1154.9777594456214	167.57960772868404	4831.121051334129	1154.4979529740394	189.90113562233395	4812.403002045372	1148.6924454516115	201.5485758594074	4797.318846146786	1143.3004084103832	203.6454750908391	4784.638831849914	1138.3954050250527	201.60457480963976	4850.951040704119	1145.9022239834617	166.95384387877658	4838.576781658435	1137.7598283654966	186.58981221607473	4822.813065135724	1130.956173872113	196.60414767522963	4808.55581181342	1124.8291983899794	198.5536800472064	4796.772063818509	1119.778478410648	196.60007790330843	4854.575861580584	1134.806120461643	165.09717670245197	4845.611483543903	1120.6895606373926	182.17024688467842	4833.901732505222	1112.556397729772	189.88858811137004	4823.944201965197	1106.7885048458102	191.16509428522147	4813.759959187499	1101.5668884378008	189.35078826309376
